<svg xmlns="http://www.w3.org/2000/svg" version="1.1" xmlns:xlink="http://www.w3.org/1999/xlink" xmlns:svgjs="http://svgjs.dev/svgjs" width="100%" height="100%" viewBox="0 0 1000 600"><rect width="1000" height="600" x="0" y="0" fill="#2b3252"/><g><rect width="333.3333333333333" height="333.3333333333333" y="308.4220461470652" fill="#fad744" transform="matrix(0.43675779529753883,0,0,0.4367577952975389,0,92.50130373366142)" x="286.19967651367193"/><path d="M440.7258932010273 440.5568740108009L440.7258932010273 440.5568740108009L440.7258932010273 464.42118671941836L477.86138230371375 464.42118671941836Q480.36088637793307 464.42118671941836 481.64039441592627 465.2543547441581L481.64039441592627 465.2543547441581Q484.3481904963305 467.12898279982255 487.29403458380324 469.74751087757613Q490.21012267039237 472.36603895532966 493.45352676670075 476.0260270640079L493.45352676670075 476.0260270640079Q494.4949867976254 477.39480310465177 494.4949867976254 478.22797112939156L494.4949867976254 478.22797112939156Q494.4949867976254 479.15040715678197 493.45352676670075 480.31089119124096L493.45352676670075 480.31089119124096Q490.21012267039237 483.97087929991915 487.29403458380324 486.5894073776727Q484.3481904963305 489.20793545542625 481.64039441592627 491.0825635110907L481.64039441592627 491.0825635110907Q480.15259437174814 491.91573153583045 477.86138230371375 491.91573153583045L477.86138230371375 491.91573153583045L440.7258932010273 491.91573153583045L440.7258932010273 544.5540970988532Q440.7258932010273 547.6784771916273 439.4166291621505 548.8984732278534Q438.1073651232738 550.0887132631959 434.98298503049966 550.0887132631959L434.98298503049966 550.0887132631959L412.69574036871103 550.0887132631959Q409.5416042750534 550.0887132631959 408.2323402361766 548.8984732278534Q406.9528321981834 547.6784771916273 406.9528321981834 544.5540970988532L406.9528321981834 544.5540970988532L406.9528321981834 428.11886564147164Q406.9528321981834 417.6447533304575 408.886972255615 411.54477314932706Q410.82111231304657 405.41503696731314 416.4152404791564 402.7369968877925Q422.00936864526625 400.08871280915537 432.781040965116 400.08871280915537L432.781040965116 400.08871280915537L482.1462464309468 400.08871280915537Q484.6755065060497 400.08871280915537 485.9252585431593 400.9218808338951L485.9252585431593 400.9218808338951Q488.63305462356357 402.7965088895596 491.5788987110363 405.41503696731314Q494.4949867976254 408.03356504506667 497.7383908939338 411.6935531537449L497.7383908939338 411.6935531537449Q498.7798509248585 413.0623291943888 498.7798509248585 413.8954972191286L498.7798509248585 413.8954972191286Q498.7798509248585 414.81793324651903 497.7383908939338 415.97841728097796L497.7383908939338 415.97841728097796Q494.4949867976254 419.6384053896562 491.5788987110363 422.25693346740974Q488.63305462356357 424.87546154516326 485.9252585431593 426.7500896008277L485.9252585431593 426.7500896008277Q484.4672144998648 427.5832576255675 482.1462464309468 427.5832576255675L482.1462464309468 427.5832576255675L452.658049555336 427.5832576255675Q445.7546573503494 427.5832576255675 443.22539727524656 430.52910171304023Q440.7258932010273 433.44518979962936 440.7258932010273 440.5568740108009Z " fill="#2b3252" transform="matrix(0.43675779529753883,0,0,0.4367577952975389,0,92.50130373366142)"/><path d="M753.6830997998576 502.44134357468954L753.6830997998576 502.44134357468954Q751.2594493827029 502.44134357468954 749.5815375554421 501.2162016055785L749.5815375554421 501.2162016055785Q747.7970916439107 500.01769315753495 745.373441226756 497.75384386678616Q742.9231572885338 495.516628097105 739.9402029289589 492.24070500578614L739.9402029289589 492.24070500578614Q738.8215950441183 490.9356624734722 738.8215950441183 489.8969551518345L738.8215950441183 489.8969551518345Q738.8215950441183 488.8582478301968 739.9402029289589 487.55320529788276L739.9402029289589 487.55320529788276Q745.7463105217029 481.00135911524507 750.5137107928092 477.9118706713997L750.5137107928092 477.9118706713997Q751.6323186776498 477.16613208150596 753.6830997998576 477.16613208150596L753.6830997998576 477.16613208150596Q760.0751448560894 477.16613208150596 764.7093775218576 472.37209828933203Q769.3436101876257 467.6046980182257 769.1571755401523 456.9246560701049L769.1571755401523 456.9246560701049Q769.0506414558816 445.41897496888754 763.4842355527464 440.83800934525465Q757.9178296496111 436.23041020055416 748.2764950231281 436.23041020055416L748.2764950231281 436.23041020055416L743.775429962698 436.23041020055416Q737.5964530750072 436.23041020055416 735.3326037842584 438.86712878624985Q733.0953880145772 441.47721385087783 733.0953880145772 447.8426253860421L733.0953880145772 447.8426253860421L733.0953880145772 542.3383581340037Q733.0953880145772 545.1348778461052 731.9235130876015 546.2268522098781Q730.7516381606256 547.2921930525833 727.9551184485241 547.2921930525833L727.9551184485241 547.2921930525833L708.006611168867 547.2921930525833Q705.1834579356979 547.2921930525833 704.0115830087221 546.2268522098781Q702.8663416028139 545.1348778461052 702.8663416028139 542.3383581340037L702.8663416028139 542.3383581340037L702.8663416028139 438.12139019635606Q702.8663416028139 428.7463907805493 704.59752047221 423.2865189616846Q706.3286993416062 417.8000136217522 711.3358013023211 415.4029967256652Q716.3429032630362 413.0326133506459 725.9842378895192 413.0326133506459L725.9842378895192 413.0326133506459L748.2764950231281 413.0326133506459Q775.1497177803697 413.0326133506459 788.0669754981716 423.55285417236087Q800.9842332159735 434.0997285151435 800.9842332159735 455.80604818526433L800.9842332159735 455.80604818526433Q800.9842332159735 472.1057630786557 794.1926853437272 482.41293573182963Q787.4011374714808 492.69347486393593 776.5879279180218 497.56740921931276Q765.7747183645629 502.44134357468954 753.6830997998576 502.44134357468954ZM844.050636782336 549.6359429065351L844.050636782336 549.6359429065351Q830.2811063903697 549.6359429065351 822.1845159858094 541.9122217969216Q814.0879255812489 534.1885006873081 814.0879255812489 520.6054049428153L814.0879255812489 520.6054049428153Q814.0879255812489 513.5741553809602 816.6713771248094 507.5549796196751Q819.2281951473021 501.5091703373224 825.6468737246016 496.87493767155433Q832.0655523019012 492.24070500578614 843.6245004452538 489.41755177261706Q855.1834485886066 486.62103206051563 873.1610753092588 486.14162868129824L873.1610753092588 486.14162868129824Q873.1610753092588 477.6189019396557 868.8997119384375 473.8902089901871Q864.6649820886838 470.1348825196509 856.1422553470413 470.1348825196509L856.1422553470413 470.1348825196509Q848.4451677584954 470.1348825196509 843.5712334031186 472.7716011053465Q838.7239325688093 475.38168616997456 837.4987905996983 476.3138594073417L837.4987905996983 476.3138594073417Q836.1937480673843 477.4324672921823 834.3027680715824 477.16613208150596L834.3027680715824 477.16613208150596Q831.7992170912248 476.79326278655907 828.9227968159205 475.86108954919195Q826.0730100616837 474.90228279075717 822.797086970365 473.7037743427137L822.797086970365 473.7037743427137Q822.3176835911476 473.51733969524025 821.7583796487272 473.0912033581581Q821.199075706307 472.66506702107597 821.119175143104 471.81279434691174L821.119175143104 471.81279434691174Q821.119175143104 471.36002448876195 821.199075706307 470.64091941993587Q821.3056097905775 469.94844787217744 821.6784790855244 468.08410139744313L821.6784790855244 468.08410139744313Q822.0513483804713 466.1931214016412 822.797086970365 463.449868731675Q823.5428255602586 460.67998254064116 824.2086635869495 459.18850536085375L824.2086635869495 459.18850536085375Q825.0343027400461 457.59049409679574 827.0051832990509 456.1789174802112L827.0051832990509 456.1789174802112Q828.6031945631089 454.8738749478972 836.646517925534 451.97082115152523Q844.7164748090269 449.0677673551532 859.9774823807805 449.0677673551532L859.9774823807805 449.0677673551532Q902.0051786255052 449.0677673551532 902.0051786255052 489.9768557150374L902.0051786255052 489.9768557150374L902.0051786255052 542.9775626396269Q902.0051786255052 544.7620085511583 901.0197383460028 546.0404175624046Q900.0342980665004 547.2921930525833 897.7171817336163 547.2921930525833L897.7171817336163 547.2921930525833L883.6546826099062 547.2921930525833Q882.1632054301186 547.2921930525833 880.9913305031429 546.8660567155013Q879.819455576167 546.4399203784192 878.7807482545294 545.2414119303756L878.7807482545294 545.2414119303756L872.9746406617853 537.7307589893032L872.3354361561621 537.7307589893032Q868.0208057432056 544.0162699612646 860.7764880128094 546.8127896733661Q853.5055367613456 549.6359429065351 844.050636782336 549.6359429065351ZM854.3578094355099 527.9029897153466L854.3578094355099 527.9029897153466Q862.9604367403554 527.9029897153466 867.3549677165148 523.5084587391873Q871.7761322137418 519.1139277630277 872.9746406617853 514.4264280551243L872.9746406617853 514.4264280551243L872.9746406617853 504.03935483874756Q859.9774823807805 504.03935483874756 853.4522697192104 506.03686891882Q846.953690578708 508.0610165199601 844.7963753722297 511.28367256914373Q842.6390601657514 514.532962139395 842.6390601657514 518.2616550888636L842.6390601657514 518.2616550888636Q842.6390601657514 523.6948933866606 846.0215173413409 525.7989415510036Q849.3773409958626 527.9029897153466 854.3578094355099 527.9029897153466ZM956.8702320248291 462.2779938046991L956.8702320248291 469.2027092822837L957.2431013197759 469.2027092822837Q964.274350881631 449.73360538184403 982.5449463340271 449.73360538184403L982.5449463340271 449.73360538184403Q984.8886961879788 449.73360538184403 986.3801733677662 449.9733070714527Q987.8716505475537 450.1863752399938 988.4309544899739 450.3728098874672L988.4309544899739 450.3728098874672Q989.8425311065586 450.85221326668466 989.8425311065586 452.5301250939455L989.8425311065586 452.5301250939455L989.8425311065586 475.08871743823056Q989.8425311065586 477.99177123460254 986.4600739309691 476.6867287022885L986.4600739309691 476.6867287022885Q985.3414660461286 476.2339588441388 983.2374178817856 475.70128842278615Q981.1333697174426 475.1952515225011 977.3780432469064 475.1952515225011L977.3780432469064 475.1952515225011Q967.7367086204232 475.1952515225011 962.3034703226261 482.25313460542384Q956.8702320248291 489.33765120941416 956.8702320248291 501.5091703373224L956.8702320248291 501.5091703373224L956.8702320248291 542.3383581340037Q956.8702320248291 545.1348778461052 955.6983570978532 546.2268522098781Q954.553115691945 547.2921930525833 951.7299624587758 547.2921930525833L951.7299624587758 547.2921930525833L932.4472932058096 547.2921930525833Q929.6241399726406 547.2921930525833 928.4522650456647 546.2268522098781Q927.2803901186888 545.1348778461052 927.2803901186888 542.3383581340037L927.2803901186888 542.3383581340037L927.2803901186888 463.87600506875714Q927.2803901186888 461.6121557780083 928.2391968771236 460.3870138088972L928.2391968771236 460.3870138088972Q930.1834439150608 457.7769287442692 932.9533301060947 455.0603095953706Q935.7232162971285 452.34369044647207 939.744877978341 449.25420200262664L939.744877978341 449.25420200262664Q940.4906165682347 448.69489806020636 941.2363551581285 448.5084634127329Q941.9820937480222 448.3220287652595 942.5680312115102 448.3220287652595L942.5680312115102 448.3220287652595Q943.8730737438242 448.3220287652595 945.1781162761382 449.25420200262664L945.1781162761382 449.25420200262664Q952.955104427887 455.3532783271146 956.0445928717323 459.6412752190035L956.0445928717323 459.6412752190035Q956.8702320248291 460.7865166249117 956.8702320248291 462.2779938046991L956.8702320248291 462.2779938046991ZM1028.5943042599642 549.6359429065351L1028.5943042599642 549.6359429065351Q1014.8514073890659 549.6359429065351 1006.7281834634379 541.9122217969216Q998.6315930588775 534.1885006873081 998.6315930588775 520.6054049428153L998.6315930588775 520.6054049428153Q998.6315930588775 513.5741553809602 1001.2150446024378 507.5549796196751Q1003.7984961459982 501.5091703373224 1010.2171747232977 496.87493767155433Q1016.6092197795297 492.24070500578614 1028.19480144395 489.41755177261706Q1039.7537495873025 486.62103206051563 1057.7313763079546 486.14162868129824L1057.7313763079546 486.14162868129824Q1057.7313763079546 477.6189019396557 1053.4700129371336 473.8902089901871Q1049.208649566312 470.1348825196509 1040.68592282467 470.1348825196509L1040.68592282467 470.1348825196509Q1033.0154687571917 470.1348825196509 1028.1415344018146 472.7716011053465Q1023.2676000464379 475.38168616997456 1022.0424580773267 476.3138594073417L1022.0424580773267 476.3138594073417Q1020.7374155450128 477.4324672921823 1018.8730690702783 477.16613208150596L1018.8730690702783 477.16613208150596Q1016.3428845688533 476.79326278655907 1013.4930978146166 475.86108954919195Q1010.6166775393123 474.90228279075717 1007.3407544479934 473.7037743427137L1007.3407544479934 473.7037743427137Q1006.8879845898435 473.51733969524025 1006.3286806474233 473.0912033581581Q1005.7693767050031 472.66506702107597 1005.6628426207325 471.81279434691174L1005.6628426207325 471.81279434691174Q1005.6628426207325 471.36002448876195 1005.7693767050031 470.64091941993587Q1005.8492772682059 469.94844787217744 1006.2221465631528 468.08410139744313L1006.2221465631528 468.08410139744313Q1006.5950158580997 466.1931214016412 1007.3407544479934 463.449868731675Q1008.0864930378872 460.67998254064116 1008.752331064578 459.18850536085375L1008.752331064578 459.18850536085375Q1009.6046037387422 457.59049409679574 1011.575484297747 456.1789174802112L1011.575484297747 456.1789174802112Q1013.1468620407373 454.8738749478972 1021.2168189242301 451.97082115152523Q1029.260142286655 449.0677673551532 1044.521149858409 449.0677673551532L1044.521149858409 449.0677673551532Q1086.5754796242013 449.0677673551532 1086.5754796242013 489.9768557150374L1086.5754796242013 489.9768557150374L1086.5754796242013 542.9775626396269Q1086.5754796242013 544.7620085511583 1085.590039344699 546.0404175624046Q1084.6045990651965 547.2921930525833 1082.260849211245 547.2921930525833L1082.260849211245 547.2921930525833L1068.1983500875344 547.2921930525833Q1066.7068729077473 547.2921930525833 1065.5349979807715 546.8660567155013Q1064.3631230537953 546.4399203784192 1063.3510492532255 545.2414119303756L1063.3510492532255 545.2414119303756L1057.5449416604815 537.7307589893032L1056.8791036337907 537.7307589893032Q1052.5644732208339 544.0162699612646 1045.320155490438 546.8127896733661Q1038.0492042389742 549.6359429065351 1028.5943042599642 549.6359429065351ZM1038.9014769131381 527.9029897153466L1038.9014769131381 527.9029897153466Q1047.5307377390513 527.9029897153466 1051.9252687152107 523.5084587391873Q1056.3197996913705 519.1139277630277 1057.5449416604815 514.4264280551243L1057.5449416604815 514.4264280551243L1057.5449416604815 504.03935483874756Q1044.521149858409 504.03935483874756 1038.0225707179065 506.03686891882Q1031.4973580563365 508.0610165199601 1029.340042849858 511.28367256914373Q1027.2093611644473 514.532962139395 1027.2093611644473 518.2616550888636L1027.2093611644473 518.2616550888636Q1027.2093611644473 523.6948933866606 1030.565184818969 525.7989415510036Q1033.9476419945586 527.9029897153466 1038.9014769131381 527.9029897153466ZM1143.6777487932063 540.2609434907283L1124.102110808496 549.2630736115882Q1122.1312302494912 550.0887127646848 1121.3055910963944 550.0887127646848L1121.3055910963944 550.0887127646848Q1120.4533184222305 550.0887127646848 1119.5211451848631 549.4495082590616L1119.5211451848631 549.4495082590616Q1117.3638299783847 547.9580310792742 1114.5939437873512 542.0986564443949Q1111.850691117385 536.2392818095158 1111.850691117385 524.0677626816075L1111.850691117385 524.0677626816075L1111.850691117385 415.6426984152739Q1111.850691117385 413.40548264559277 1112.7828643547518 412.18034067648165L1112.7828643547518 412.18034067648165Q1116.7246254727615 407.04007111042847 1124.2885454559696 401.04752887021107L1124.2885454559696 401.04752887021107Q1125.6202215093513 400.0887221117763 1126.6322953099211 400.0887221117763L1126.6322953099211 400.0887221117763Q1127.8574372790322 400.0887221117763 1128.9760451638726 401.04752887021107L1128.9760451638726 401.04752887021107Q1132.9977068450853 404.1370173140565 1135.7675930361193 406.8536364629551Q1138.5374792271532 409.5702556118536 1140.508359786158 412.18034067648165L1140.508359786158 412.18034067648165Q1141.440533023525 413.40548264559277 1141.440533023525 415.6426984152739L1141.440533023525 415.6426984152739L1141.440533023525 518.368189173134Q1141.440533023525 524.5471660608249 1142.4526068240953 528.888429994849Q1143.4913141457328 533.2563274499408 1144.9028907623174 535.8664125145689L1144.9028907623174 535.8664125145689Q1146.5009020263751 538.9559009584143 1143.6777487932063 540.2609434907283L1143.6777487932063 540.2609434907283ZM1198.915671487477 540.2609434907283L1179.3666670238345 549.2630736115882Q1177.3957864648296 550.0887127646848 1176.5435137906652 550.0887127646848L1176.5435137906652 550.0887127646848Q1175.6912411165008 550.0887127646848 1174.759067879134 549.4495082590616L1174.759067879134 549.4495082590616Q1172.6017526726555 547.9580310792742 1169.8585000026892 542.0986564443949Q1167.0886138116557 536.2392818095158 1167.0886138116557 524.0677626816075L1167.0886138116557 524.0677626816075L1167.0886138116557 415.6426984152739Q1167.0886138116557 413.40548264559277 1168.0207870490226 412.18034067648165L1168.0207870490226 412.18034067648165Q1171.9625481670323 407.04007111042847 1179.553101671308 401.04752887021107L1179.553101671308 401.04752887021107Q1180.8581442036216 400.0887221117763 1181.8702180041919 400.0887221117763L1181.8702180041919 400.0887221117763Q1183.095359973303 400.0887221117763 1184.2139678581434 401.04752887021107L1184.2139678581434 401.04752887021107Q1188.2622630604237 404.1370173140565 1191.00551573039 406.8536364629551Q1193.7754019214235 409.5702556118536 1195.7462824804288 412.18034067648165L1195.7462824804288 412.18034067648165Q1196.6784557177957 413.40548264559277 1196.6784557177957 415.6426984152739L1196.6784557177957 415.6426984152739L1196.6784557177957 518.368189173134Q1196.6784557177957 524.5471660608249 1197.7171630394332 528.888429994849Q1198.7292368400035 533.2563274499408 1200.1408134565881 535.8664125145689L1200.1408134565881 535.8664125145689Q1201.7388247206459 538.9559009584143 1198.915671487477 540.2609434907283L1198.915671487477 540.2609434907283ZM1269.3347011902983 549.6359429065351L1269.3347011902983 549.6359429065351Q1253.5143896761242 549.6359429065351 1241.7956404063657 544.5223068615496Q1230.1035246576748 539.4353043376317 1223.63157903824 528.6487283052404Q1217.186266939873 517.8887857939167 1217.186266939873 500.8433323106316L1217.186266939873 500.8433323106316Q1217.186266939873 475.275152085704 1230.2899593051484 462.17145972042863Q1243.3936516704239 449.0677673551532 1265.1266048616121 449.0677673551532L1265.1266048616121 449.0677673551532Q1279.2690045485256 449.0677673551532 1289.0435067803464 454.1281363580035Q1298.8180090121677 459.18850536085375 1303.9316450571532 468.08410139744313Q1309.0452811021391 476.9796974340325 1309.0452811021391 488.40547797204704L1309.0452811021391 488.40547797204704Q1309.0452811021391 499.53828977831756 1303.3190740725981 503.932820754477Q1297.6195005641243 508.32735173063645 1286.6464898842596 508.32735173063645L1286.6464898842596 508.32735173063645L1246.4831401142692 508.32735173063645Q1247.228878704163 517.9953198781873 1253.5676567182595 523.0290553599698Q1259.8798012112889 528.0894243628201 1270.746277806883 528.0894243628201L1270.746277806883 528.0894243628201Q1279.348905111728 528.0894243628201 1284.5424417199165 525.5326063403273Q1289.735978328105 522.949154796767 1291.8133929713804 521.4576776169795L1291.8133929713804 521.4576776169795Q1293.5978388829117 520.1260015635978 1295.835054652593 520.2325356478684L1295.835054652593 520.2325356478684Q1297.6195005641243 520.2325356478684 1300.9486906975785 520.9250071956268Q1304.251247309965 521.6441122644529 1307.527170401284 523.5084587391873L1307.527170401284 523.5084587391873Q1309.8709202552354 524.7336007082984 1309.8709202552354 526.8909159147765L1309.8709202552354 526.8909159147765Q1309.8709202552354 528.0894243628201 1309.4181503970858 530.3532736535689L1309.4181503970858 530.3532736535689Q1309.1251816653416 531.6583161858829 1308.4859771597185 534.1352336451728Q1307.820139133028 536.6121511044626 1306.7814318113901 538.7694663109409L1306.7814318113901 538.7694663109409Q1306.22212786897 539.8081736325786 1304.9969858998588 540.7403468699457L1304.9969858998588 540.7403468699457Q1303.1326394251246 542.0453894022597 1298.9778101385737 544.202704608738Q1294.796347330955 546.3600198152162 1287.6052966426946 547.9846646003418Q1280.387612433366 549.6359429065351 1269.3347011902983 549.6359429065351ZM1246.2967054667956 489.15121656194077L1246.2967054667956 489.15121656194077L1276.818720610303 489.15121656194077Q1281.612754402477 489.15121656194077 1281.612754402477 484.7566855857813L1281.612754402477 484.7566855857813Q1281.612754402477 478.0983053188731 1277.4312915948585 473.5439732163079Q1273.276462308308 469.01627463481026 1264.940170214139 469.01627463481026L1264.940170214139 469.01627463481026Q1255.8581395300762 469.01627463481026 1251.5967761592547 474.8223822275543Q1247.3354127884336 480.6284898202982 1246.2967054667956 489.15121656194077ZM1370.0893113891534 514.7992973500712L1370.0893113891534 514.7992973500712Q1360.1550080309266 520.5255043796124 1356.3197809971875 527.2637852097234Q1352.484553963448 534.0020660398345 1352.484553963448 543.8298353137911L1352.484553963448 543.8298353137911Q1352.484553963448 545.800715872796 1351.9252500210278 546.5464544626897Q1351.3659460786075 547.2921930525833 1349.4749660828056 547.2921930525833L1349.4749660828056 547.2921930525833L1327.6621123284144 547.2921930525833Q1323.5605500839988 547.2921930525833 1323.5605500839988 541.9654888390569L1323.5605500839988 541.9654888390569Q1323.5605500839988 529.2080322476606 1328.7540866921872 519.1938283262307Q1333.9476233003757 509.17962440480073 1347.0513156656511 501.32273568984897L1347.0513156656511 501.32273568984897Q1337.117012307424 495.7829633077813 1331.4707058410859 486.3280633287717Q1325.7977658536802 476.87316334976197 1325.7977658536802 466.2996554859117L1325.7977658536802 466.2996554859117L1325.7977658536802 464.80817830612426Q1325.7977658536802 462.54432901537547 1326.729939091047 461.345820567332L1326.729939091047 461.345820567332Q1330.6717002090568 456.1789174802112 1338.262253713332 450.1863752399938L1338.262253713332 450.1863752399938Q1339.5672962456465 449.25420200262664 1340.5793700462164 449.25420200262664L1340.5793700462164 449.25420200262664Q1341.8045120153274 449.25420200262664 1342.9231199001679 450.1863752399938L1342.9231199001679 450.1863752399938Q1346.9447815813805 453.27586368383925 1349.7146677724145 455.9924828327378Q1352.484553963448 458.70910198163637 1354.4554345224533 461.345820567332L1354.4554345224533 461.345820567332Q1355.3876077598202 462.54432901537547 1355.3876077598202 464.80817830612426L1355.3876077598202 464.80817830612426L1355.3876077598202 466.2996554859117Q1355.3876077598202 479.6963165829311 1370.9149505422502 486.9939013554625L1370.9149505422502 486.9939013554625Q1378.0527341883758 483.0521402374528 1380.9824215058156 477.9118706713997Q1383.9387423443227 472.7716011053465 1383.9387423443227 466.2996554859117L1383.9387423443227 466.2996554859117L1383.9387423443227 464.80817830612426Q1383.9387423443227 462.54432901537547 1384.8709155816896 461.345820567332L1384.8709155816896 461.345820567332Q1388.6262420522262 456.1789174802112 1396.1102614722308 450.1863752399938L1396.1102614722308 450.1863752399938Q1397.335403441342 449.25420200262664 1398.3741107629799 449.25420200262664L1398.3741107629799 449.25420200262664Q1399.5726192110233 449.25420200262664 1400.6113265326612 450.1863752399938L1400.6113265326612 450.1863752399938Q1404.5530876506705 453.27586368383925 1407.2697067995691 455.9924828327378Q1409.9863259484678 458.70910198163637 1411.850672423202 461.345820567332L1411.850672423202 461.345820567332Q1412.7828456605694 462.54432901537547 1412.7828456605694 464.80817830612426L1412.7828456605694 464.80817830612426L1412.7828456605694 466.2996554859117Q1412.7828456605694 477.9118706713997 1407.6425760945158 486.3280633287717Q1402.475673007395 494.77088950721134 1394.139380913226 500.2840283682113L1394.139380913226 500.2840283682113Q1405.7515960987143 506.835874550849 1411.1049338333082 517.5691835411051Q1416.431638046835 528.2758590102935 1416.431638046835 541.9654888390569L1416.431638046835 541.9654888390569Q1416.431638046835 545.1348778461052 1415.6858994569411 546.2268522098781Q1414.9401608670473 547.2921930525833 1412.4099763656222 547.2921930525833L1412.4099763656222 547.2921930525833L1390.1177192320138 547.2921930525833Q1386.841796140695 547.2921930525833 1386.841796140695 542.7911279921534L1386.841796140695 542.7911279921534Q1386.841796140695 536.7186851887332 1385.6699212137187 531.9246513965593Q1384.498046286743 527.157251125453 1380.955787984748 523.0024218389021Q1377.386896161685 518.8209590312838 1370.0893113891534 514.7992973500712ZM1561.104924486217 547.2921930525833L1513.9902257175745 547.2921930525833Q1504.348891091091 547.2921930525833 1499.3417891303761 544.8685426354289Q1494.3346871696613 542.4182586972065 1492.6035083002648 536.9051198362066Q1490.8723294308688 531.3653474541389 1490.8723294308688 522.2034162068733L1490.8723294308688 522.2034162068733L1490.8723294308688 438.12139019635606Q1490.8723294308688 428.7463907805493 1492.6035083002648 423.2865189616846Q1494.3346871696613 417.8000136217522 1499.3417891303761 415.4029967256652Q1504.348891091091 413.0326133506459 1513.9902257175745 413.0326133506459L1513.9902257175745 413.0326133506459L1558.0154360423712 413.0326133506459Q1560.2526518120526 413.0326133506459 1561.371259696893 413.7783519405396L1561.371259696893 413.7783519405396Q1563.8215436351152 415.45626376780046 1566.4316286997432 417.8000136217522Q1569.068347285439 420.14376347570385 1571.971401081811 423.4196865670227L1571.971401081811 423.4196865670227Q1572.9035743191785 424.64482853613384 1572.9035743191785 425.3905671260276L1572.9035743191785 425.3905671260276Q1572.9035743191785 426.2162062791242 1571.971401081811 427.2549136007619L1571.971401081811 427.2549136007619Q1569.068347285439 430.5308366920807 1566.4316286997432 432.8745865460324Q1563.8215436351152 435.2183363999841 1561.371259696893 436.896248227245L1561.371259696893 436.896248227245Q1560.0662171645795 437.6419868171387 1558.0154360423712 437.6419868171387L1558.0154360423712 437.6419868171387L1531.781417790753 437.6419868171387Q1525.6024409030624 437.6419868171387 1523.365225133381 440.27870540283436Q1521.1280093637001 442.8887904674624 1521.1280093637001 449.25420200262664L1521.1280093637001 449.25420200262664L1521.1280093637001 467.4182633707523L1554.7395129510528 467.4182633707523Q1556.9767287207337 467.4182633707523 1558.0953366055742 468.16400196064603L1558.0953366055742 468.16400196064603Q1560.5456205437968 469.86854730897454 1563.1557056084243 472.1856636418586Q1565.79242419412 474.5294134958103 1568.6688444694246 477.80533658712915L1568.6688444694246 477.80533658712915Q1569.6276512278596 479.03047855624027 1569.6276512278596 479.77621714613394L1569.6276512278596 479.77621714613394Q1569.6276512278596 480.6284898202982 1568.6688444694246 481.6671971419359L1568.6688444694246 481.6671971419359Q1565.79242419412 484.9431202332548 1563.1557056084243 487.2602365661388Q1560.5456205437968 489.60398642009056 1558.0953366055742 491.308531768419L1558.0953366055742 491.308531768419Q1556.7902940732602 492.05427035831275 1554.7395129510528 492.05427035831275L1554.7395129510528 492.05427035831275L1521.1280093637001 492.05427035831275L1521.1280093637001 510.96407031633214Q1521.1280093637001 517.2229477672258 1523.365225133381 519.9395669161245Q1525.6024409030624 522.6561860650229 1531.781417790753 522.6561860650229L1531.781417790753 522.6561860650229L1561.104924486217 522.6561860650229Q1563.342140255898 522.6561860650229 1564.4607481407388 523.4285581759843L1564.4607481407388 523.4285581759843Q1566.911032078961 525.1064700032452 1569.521117143589 527.4502198571969Q1572.1578357292847 529.7939697111485 1575.0608895256564 533.0698928024674L1575.0608895256564 533.0698928024674Q1575.9930627630238 534.2684012505109 1575.9930627630238 535.0141398404046L1575.9930627630238 535.0141398404046Q1575.9930627630238 535.8664125145689 1575.0608895256564 536.9051198362066L1575.0608895256564 536.9051198362066Q1572.1578357292847 540.1810429275254 1569.521117143589 542.5247927814771Q1566.911032078961 544.8685426354289 1564.4607481407388 546.5464544626897L1564.4607481407388 546.5464544626897Q1563.1557056084243 547.2921930525833 1561.104924486217 547.2921930525833L1561.104924486217 547.2921930525833ZM1630.4852468674007 473.22437096349626L1630.4852468674007 542.3383581340037Q1630.4852468674007 545.1348778461052 1629.313371940425 546.2268522098781Q1628.1414970134488 547.2921930525833 1625.31834378028 547.2921930525833L1625.31834378028 547.2921930525833L1606.0356745273134 547.2921930525833Q1603.2391548152123 547.2921930525833 1602.0672798882365 546.2268522098781Q1600.8954049612603 545.1348778461052 1600.8954049612603 542.3383581340037L1600.8954049612603 542.3383581340037L1600.8954049612603 473.22437096349626L1589.8424937181926 473.22437096349626Q1587.0459740060915 473.22437096349626 1585.9539996423182 472.05249603652044Q1584.888658799613 470.88062110954456 1584.888658799613 468.08410139744313L1584.888658799613 468.08410139744313L1584.888658799613 456.55178677515806Q1584.888658799613 453.75526706305664 1585.9539996423182 452.58339213608076Q1587.0459740060915 451.41151720910494 1589.8424937181926 451.41151720910494L1589.8424937181926 451.41151720910494L1600.8954049612603 451.41151720910494L1600.8954049612603 439.53296681294063Q1600.8954049612603 428.18708683812906 1605.4231035427579 420.03722939143336Q1609.9774356453236 411.88737194473765 1617.7011567549366 407.4928409685782Q1625.4248778645501 403.0983099924188 1634.87977784356 403.0983099924188L1634.87977784356 403.0983099924188Q1639.2743088197194 403.0983099924188 1641.564791631536 403.47117928736566Q1643.88190796442 403.84404858231255 1645.0005158492604 404.58978717220623L1645.0005158492604 404.58978717220623Q1648.6493082355264 406.66720181548163 1655.0946203338935 413.0326133506459L1655.0946203338935 413.0326133506459Q1656.133327655531 414.15122123548645 1656.133327655531 415.2698291203271L1656.133327655531 415.2698291203271Q1656.133327655531 416.4949710894382 1654.5353163914733 418.0663488324285L1654.5353163914733 418.0663488324285Q1651.7387966793717 420.9694026288005 1649.2086121779466 422.9935502299406Q1646.6784276765216 425.0176978310807 1645.0804164124634 426.02977163165076L1645.0804164124634 426.02977163165076Q1643.6954733169464 426.88204430581504 1642.6034989531736 427.0152119111532Q1641.5381581104684 427.14837951649133 1639.6471781146665 427.14837951649133L1639.6471781146665 427.14837951649133Q1630.4852468674007 427.14837951649133 1630.4852468674007 441.21087864020154L1630.4852468674007 441.21087864020154L1630.4852468674007 451.41151720910494L1647.4241662664149 451.41151720910494Q1650.2473194995841 451.41151720910494 1651.3126603422897 452.58339213608076Q1652.378001184995 453.75526706305664 1652.378001184995 456.55178677515806L1652.378001184995 456.55178677515806L1652.378001184995 468.08410139744313Q1652.378001184995 470.88062110954456 1651.3126603422897 472.05249603652044Q1650.2473194995841 473.22437096349626 1647.4241662664149 473.22437096349626L1647.4241662664149 473.22437096349626L1630.4852468674007 473.22437096349626ZM1703.7007962823236 473.22437096349626L1703.7007962823236 542.3383581340037Q1703.7007962823236 545.1348778461052 1702.5289213553478 546.2268522098781Q1701.3570464283716 547.2921930525833 1698.5605267162705 547.2921930525833L1698.5605267162705 547.2921930525833L1679.2512239422363 547.2921930525833Q1676.4547042301351 547.2921930525833 1675.2828293031594 546.2268522098781Q1674.1109543761831 545.1348778461052 1674.1109543761831 542.3383581340037L1674.1109543761831 542.3383581340037L1674.1109543761831 473.22437096349626L1663.0580431331155 473.22437096349626Q1660.2615234210143 473.22437096349626 1659.169549057241 472.05249603652044Q1658.104208214536 470.88062110954456 1658.104208214536 468.08410139744313L1658.104208214536 468.08410139744313L1658.104208214536 456.55178677515806Q1658.104208214536 453.75526706305664 1659.169549057241 452.58339213608076Q1660.2615234210143 451.41151720910494 1663.0580431331155 451.41151720910494L1663.0580431331155 451.41151720910494L1674.1109543761831 451.41151720910494L1674.1109543761831 439.53296681294063Q1674.1109543761831 428.18708683812906 1678.6652864787484 420.03722939143336Q1683.192985060246 411.88737194473765 1690.91670616986 407.4928409685782Q1698.640427279473 403.0983099924188 1708.095327258483 403.0983099924188L1708.095327258483 403.0983099924188Q1712.4898582346423 403.0983099924188 1714.8069745675266 403.47117928736566Q1717.0974573793428 403.84404858231255 1718.2160652641833 404.58978717220623L1718.2160652641833 404.58978717220623Q1721.8648576504493 406.66720181548163 1728.336803269884 413.0326133506459L1728.336803269884 413.0326133506459Q1729.348877070454 414.15122123548645 1729.348877070454 415.2698291203271L1729.348877070454 415.2698291203271Q1729.348877070454 416.4949710894382 1727.7774993274634 418.0663488324285L1727.7774993274634 418.0663488324285Q1724.9543460942941 420.9694026288005 1722.4241615928695 422.9935502299406Q1719.8939770914444 425.0176978310807 1718.2959658273862 426.02977163165076L1718.2959658273862 426.02977163165076Q1716.9110227318693 426.88204430581504 1715.8190483680964 427.0152119111532Q1714.7537075253913 427.14837951649133 1712.889361050657 427.14837951649133L1712.889361050657 427.14837951649133Q1703.7007962823236 427.14837951649133 1703.7007962823236 441.21087864020154L1703.7007962823236 441.21087864020154L1703.7007962823236 451.41151720910494L1720.6397156813377 451.41151720910494Q1723.462868914507 451.41151720910494 1724.5282097572122 452.58339213608076Q1725.6201841209854 453.75526706305664 1725.6201841209854 456.55178677515806L1725.6201841209854 456.55178677515806L1725.6201841209854 468.08410139744313Q1725.6201841209854 470.88062110954456 1724.5282097572122 472.05249603652044Q1723.462868914507 473.22437096349626 1720.6397156813377 473.22437096349626L1720.6397156813377 473.22437096349626L1703.7007962823236 473.22437096349626ZM1786.7441149712026 549.6359429065351L1786.7441149712026 549.6359429065351Q1770.923803457029 549.6359429065351 1759.231687708338 544.5223068615496Q1747.5129384385796 539.4353043376317 1741.0676263402124 528.6487283052404Q1734.5956807207776 517.8887857939167 1734.5956807207776 500.8433323106316L1734.5956807207776 500.8433323106316Q1734.5956807207776 475.275152085704 1747.6993730860531 462.17145972042863Q1760.8296989723963 449.0677673551532 1782.5360186425169 449.0677673551532L1782.5360186425169 449.0677673551532Q1796.6784183294299 449.0677673551532 1806.4529205612512 454.1281363580035Q1816.2540563141401 459.18850536085375 1821.341058838058 468.08410139744313Q1826.4546948830434 476.9796974340325 1826.4546948830434 488.40547797204704L1826.4546948830434 488.40547797204704Q1826.4546948830434 499.53828977831756 1820.75512137457 503.932820754477Q1815.028914345029 508.32735173063645 1804.082537186232 508.32735173063645L1804.082537186232 508.32735173063645L1763.9191874162416 508.32735173063645Q1764.6649260061354 517.9953198781873 1770.9770704991643 523.0290553599698Q1777.2892149921931 528.0894243628201 1788.1556915877873 528.0894243628201L1788.1556915877873 528.0894243628201Q1796.7849524137005 528.0894243628201 1801.978489021889 525.5326063403273Q1807.1720256300773 522.949154796767 1809.2228067522847 521.4576776169795L1809.2228067522847 521.4576776169795Q1811.0072526638164 520.1260015635978 1813.2444684334978 520.2325356478684L1813.2444684334978 520.2325356478684Q1815.028914345029 520.2325356478684 1818.3581044784833 520.9250071956268Q1821.687294611937 521.6441122644529 1824.9632177032563 523.5084587391873L1824.9632177032563 523.5084587391873Q1827.3069675572078 524.7336007082984 1827.3069675572078 526.8909159147765L1827.3069675572078 526.8909159147765Q1827.3069675572078 528.0894243628201 1826.82756417799 530.3532736535689L1826.82756417799 530.3532736535689Q1826.561228967314 531.6583161858829 1825.8953909406232 534.1352336451728Q1825.2295529139324 536.6121511044626 1824.2174791133625 538.7694663109409L1824.2174791133625 538.7694663109409Q1823.6581751709418 539.8081736325786 1822.4330332018312 540.7403468699457L1822.4330332018312 540.7403468699457Q1820.5686867270965 542.0453894022597 1816.3872239194784 544.202704608738Q1812.2323946329275 546.3600198152162 1805.014710423599 547.9846646003418Q1797.7970262142703 549.6359429065351 1786.7441149712026 549.6359429065351ZM1763.732752768768 489.15121656194077L1763.732752768768 489.15121656194077L1794.2547679122754 489.15121656194077Q1799.0221681833814 489.15121656194077 1799.0221681833814 484.7566855857813L1799.0221681833814 484.7566855857813Q1799.0221681833814 478.0983053188731 1794.8407053757633 473.5439732163079Q1790.6858760892123 469.01627463481026 1782.3495839950433 469.01627463481026L1782.3495839950433 469.01627463481026Q1773.2675533109805 469.01627463481026 1769.0061899401594 474.8223822275543Q1764.7448265693379 480.6284898202982 1763.732752768768 489.15121656194077ZM1894.7963099425897 449.0677673551532L1894.7963099425897 449.0677673551532Q1905.955755269928 449.0677673551532 1911.0161242727781 450.9054803088199Q1916.0498597545607 452.71655974141896 1917.3815358079423 453.75526706305664L1917.3815358079423 453.75526706305664Q1919.4323169301501 455.0603095953706 1920.5509248149906 457.11109071757835L1920.5509248149906 457.11109071757835Q1921.2167628416814 458.149798039216 1922.0424019947777 460.67998254064116Q1922.8946746689421 463.2101670420663 1923.2675439638892 466.1931214016412L1923.2675439638892 466.1931214016412Q1923.7469473431065 468.53687125559287 1923.3740780481598 469.5223115350953Q1923.0012087532127 470.5077518145977 1921.0303281942079 471.9193284311823L1921.0303281942079 471.9193284311823Q1918.7664789034593 473.4108056109697 1916.103126796696 474.5826805379455Q1913.4397746899326 475.7545554649214 1911.7618628626715 476.2339588441388L1911.7618628626715 476.2339588441388Q1910.3502862460873 476.6068281390857 1909.6045476561935 476.42039349161223Q1908.8588090662997 476.2339588441388 1907.5537665339857 475.275152085704L1907.5537665339857 475.275152085704Q1906.0356558331305 474.26307828513393 1903.3190366842323 472.98466927388756Q1900.6024175353336 471.73289378370885 1895.8350172642272 471.73289378370885L1895.8350172642272 471.73289378370885Q1889.7625744608072 471.73289378370885 1884.2760691208746 474.7158481432837Q1878.789563780942 477.72543602392625 1875.3804730842853 483.71797826414365Q1871.9713823876282 489.71052050436106 1871.9713823876282 498.68601710415334L1871.9713823876282 498.68601710415334Q1871.9713823876282 512.1892122854432 1879.0292654705509 519.5666976211776Q1886.0871485534735 526.9708164779795 1897.9923324707056 526.9708164779795L1897.9923324707056 526.9708164779795Q1904.0647752741256 526.9708164779795 1908.1130704764064 525.7190409878008Q1912.1347321576186 524.4406319765544 1914.4784820115701 523.1355894442404L1914.4784820115701 523.1355894442404Q1916.3428284863044 522.0968821226027 1917.328268765807 522.6295525439554Q1918.3137090453097 523.1355894442404 1918.8730129877295 524.4406319765544L1918.8730129877295 524.4406319765544L1925.7178279021114 539.8880741957814Q1926.7299017026817 542.3383581340037 1924.5725864962033 543.3504319345737L1924.5725864962033 543.3504319345737Q1921.1102287574108 545.1348778461052 1913.146805958189 547.398727136854Q1905.2100166800337 549.6359429065351 1893.4912674102757 549.6359429065351L1893.4912674102757 549.6359429065351Q1870.0005018286233 549.6359429065351 1855.9380027049133 537.1448215258152Q1841.902137102271 524.6270666240277 1841.902137102271 499.724724425791L1841.902137102271 499.724724425791Q1841.902137102271 483.79787882734655 1848.3740827217057 472.4786323736025Q1854.8193948200724 461.15938591985855 1866.7245787373045 455.1135766375059Q1878.6031291334684 449.0677673551532 1894.7963099425897 449.0677673551532ZM1978.8783359531067 549.6359429065351L1978.8783359531067 549.6359429065351Q1947.6105822197055 549.6359429065351 1947.6105822197055 517.1430472040229L1947.6105822197055 517.1430472040229L1947.6105822197055 473.22437096349626L1937.0370743558556 473.22437096349626Q1934.2139211226863 473.22437096349626 1933.1485802799812 472.05249603652044Q1932.083239437276 470.88062110954456 1932.083239437276 468.08410139744313L1932.083239437276 468.08410139744313L1932.083239437276 456.55178677515806Q1932.083239437276 453.75526706305664 1933.1485802799812 452.58339213608076Q1934.2139211226863 451.41151720910494 1937.0370743558556 451.41151720910494L1937.0370743558556 451.41151720910494L1947.6105822197055 451.41151720910494L1947.6105822197055 436.3369442848247Q1947.6105822197055 434.0997285151435 1948.5427554570729 432.8745865460324L1948.5427554570729 432.8745865460324Q1952.4845165750821 427.73431697997927 1960.0750700793578 421.74177473976187L1960.0750700793578 421.74177473976187Q1961.3801126116718 420.7829679813271 1962.4188199333094 420.7829679813271L1962.4188199333094 420.7829679813271Q1963.5374278181503 420.7829679813271 1964.6560357029907 421.74177473976187L1964.6560357029907 421.74177473976187Q1968.6776973842034 424.8312631836073 1971.4475835752373 427.5478823325058Q1974.2174697662708 430.23786796033676 1976.161716804208 432.8745865460324L1976.161716804208 432.8745865460324Q1977.120523562643 434.0997285151435 1977.120523562643 436.3369442848247L1977.120523562643 436.3369442848247L1977.120523562643 451.41151720910494L1993.6865736667105 451.41151720910494Q1996.483093378812 451.41151720910494 1997.575067742585 452.58339213608076Q1998.64040858529 453.75526706305664 1998.64040858529 456.55178677515806L1998.64040858529 456.55178677515806L1998.64040858529 468.08410139744313Q1998.64040858529 470.88062110954456 1997.575067742585 472.05249603652044Q1996.483093378812 473.22437096349626 1993.6865736667105 473.22437096349626L1993.6865736667105 473.22437096349626L1977.120523562643 473.22437096349626L1977.120523562643 512.0027776379698Q1977.120523562643 526.9708164779795 1987.9603666371695 526.9708164779795L1987.9603666371695 526.9708164779795Q1989.6649119854978 526.9708164779795 1991.0498550810148 526.6512142251679Q1992.4614316975994 526.3049784512887 1993.5001390192374 525.9321091563418L1993.5001390192374 525.9321091563418Q1995.4710195782418 525.1863705664481 1996.270025210271 525.3728052139215Q1997.0423973212323 525.559239861395 1997.7082353479232 527.4502198571969L1997.7082353479232 527.4502198571969L2003.14147364572 541.9654888390569Q2003.9937463198844 544.2826051719409 2002.0228657608795 545.3213124935786L2002.0228657608795 545.3213124935786Q2000.6112891442954 545.9871505202693 1995.2313178886334 547.7982299528685Q1989.8513466329714 549.6359429065351 1978.8783359531067 549.6359429065351Z " fill="#fad744" transform="matrix(0.43675779529753883,0,0,0.4367577952975389,0,92.50130373366142)"/></g></svg>